<mxfile host="app.diagrams.net" agent="Mozilla/5.0 (Windows NT 10.0; Win64; x64) AppleWebKit/537.36 (KHTML, like Gecko) Chrome/127.0.0.0 Safari/537.36" version="24.7.5">
  <diagram name="第 1 页" id="NPTidm1oZQYMJ1--32o8">
    <mxGraphModel dx="1434" dy="738" grid="1" gridSize="10" guides="1" tooltips="1" connect="1" arrows="1" fold="1" page="1" pageScale="1" pageWidth="827" pageHeight="1169" math="0" shadow="0">
      <root>
        <mxCell id="0" />
        <mxCell id="1" parent="0" />
        <mxCell id="BUKgxNRoLi286E0FGoUt-1" value="" style="rounded=0;whiteSpace=wrap;html=1;" vertex="1" parent="1">
          <mxGeometry x="100" y="120" width="670" height="320" as="geometry" />
        </mxCell>
        <mxCell id="BUKgxNRoLi286E0FGoUt-2" value="192.168.0.200" style="rounded=1;whiteSpace=wrap;html=1;" vertex="1" parent="1">
          <mxGeometry x="392" y="390" width="83" height="20" as="geometry" />
        </mxCell>
        <mxCell id="BUKgxNRoLi286E0FGoUt-4" value="" style="rounded=0;whiteSpace=wrap;html=1;" vertex="1" parent="1">
          <mxGeometry x="180" y="160" width="230" height="170" as="geometry" />
        </mxCell>
        <mxCell id="BUKgxNRoLi286E0FGoUt-6" value="" style="rounded=0;whiteSpace=wrap;html=1;" vertex="1" parent="1">
          <mxGeometry x="460" y="160" width="230" height="170" as="geometry" />
        </mxCell>
        <mxCell id="BUKgxNRoLi286E0FGoUt-7" value="A" style="ellipse;whiteSpace=wrap;html=1;aspect=fixed;" vertex="1" parent="1">
          <mxGeometry x="255" y="205" width="80" height="80" as="geometry" />
        </mxCell>
        <mxCell id="BUKgxNRoLi286E0FGoUt-8" value="172.17.0.1/24" style="rounded=1;whiteSpace=wrap;html=1;" vertex="1" parent="1">
          <mxGeometry x="258" y="360" width="74" height="20" as="geometry" />
        </mxCell>
        <mxCell id="BUKgxNRoLi286E0FGoUt-9" value="172.18.0.1/24" style="rounded=1;whiteSpace=wrap;html=1;" vertex="1" parent="1">
          <mxGeometry x="550" y="360" width="74" height="20" as="geometry" />
        </mxCell>
        <mxCell id="BUKgxNRoLi286E0FGoUt-10" value="B" style="ellipse;whiteSpace=wrap;html=1;aspect=fixed;" vertex="1" parent="1">
          <mxGeometry x="480" y="205" width="80" height="80" as="geometry" />
        </mxCell>
        <mxCell id="BUKgxNRoLi286E0FGoUt-11" value="C" style="ellipse;whiteSpace=wrap;html=1;aspect=fixed;" vertex="1" parent="1">
          <mxGeometry x="600" y="205" width="80" height="80" as="geometry" />
        </mxCell>
        <mxCell id="BUKgxNRoLi286E0FGoUt-12" value="172.17.0.2" style="text;html=1;align=center;verticalAlign=middle;whiteSpace=wrap;rounded=0;" vertex="1" parent="1">
          <mxGeometry x="265" y="285" width="60" height="30" as="geometry" />
        </mxCell>
        <mxCell id="BUKgxNRoLi286E0FGoUt-13" value="172.18.0.2" style="text;html=1;align=center;verticalAlign=middle;whiteSpace=wrap;rounded=0;" vertex="1" parent="1">
          <mxGeometry x="490" y="285" width="60" height="30" as="geometry" />
        </mxCell>
        <mxCell id="BUKgxNRoLi286E0FGoUt-14" value="172.18.0.3" style="text;html=1;align=center;verticalAlign=middle;whiteSpace=wrap;rounded=0;" vertex="1" parent="1">
          <mxGeometry x="610" y="285" width="60" height="30" as="geometry" />
        </mxCell>
        <mxCell id="BUKgxNRoLi286E0FGoUt-19" value="" style="endArrow=none;html=1;rounded=0;exitX=0.5;exitY=0;exitDx=0;exitDy=0;entryX=0.5;entryY=0;entryDx=0;entryDy=0;" edge="1" parent="1" source="BUKgxNRoLi286E0FGoUt-12" target="BUKgxNRoLi286E0FGoUt-8">
          <mxGeometry width="50" height="50" relative="1" as="geometry">
            <mxPoint x="410" y="330" as="sourcePoint" />
            <mxPoint x="460" y="280" as="targetPoint" />
          </mxGeometry>
        </mxCell>
        <mxCell id="BUKgxNRoLi286E0FGoUt-20" value="" style="endArrow=none;html=1;rounded=0;exitX=0.5;exitY=0;exitDx=0;exitDy=0;entryX=0.5;entryY=0;entryDx=0;entryDy=0;" edge="1" parent="1" source="BUKgxNRoLi286E0FGoUt-13" target="BUKgxNRoLi286E0FGoUt-9">
          <mxGeometry width="50" height="50" relative="1" as="geometry">
            <mxPoint x="490" y="355" as="sourcePoint" />
            <mxPoint x="490" y="430" as="targetPoint" />
          </mxGeometry>
        </mxCell>
        <mxCell id="BUKgxNRoLi286E0FGoUt-21" value="" style="endArrow=none;html=1;rounded=0;exitX=0.5;exitY=0;exitDx=0;exitDy=0;entryX=0.5;entryY=0;entryDx=0;entryDy=0;" edge="1" parent="1" source="BUKgxNRoLi286E0FGoUt-9" target="BUKgxNRoLi286E0FGoUt-14">
          <mxGeometry width="50" height="50" relative="1" as="geometry">
            <mxPoint x="530" y="295" as="sourcePoint" />
            <mxPoint x="585" y="370" as="targetPoint" />
          </mxGeometry>
        </mxCell>
        <mxCell id="BUKgxNRoLi286E0FGoUt-23" value="192.168.0.1/24" style="rounded=1;whiteSpace=wrap;html=1;" vertex="1" parent="1">
          <mxGeometry x="393.5" y="430" width="83" height="20" as="geometry" />
        </mxCell>
        <mxCell id="BUKgxNRoLi286E0FGoUt-25" value="&lt;div style=&quot;font-size: 14px; line-height: 19px; white-space: pre;&quot;&gt;&lt;div style=&quot;&quot;&gt;&lt;span style=&quot;background-color: rgb(255, 255, 255);&quot;&gt;1. 外部访问容器内(端口映射)&lt;/span&gt;&lt;/div&gt;&lt;div style=&quot;&quot;&gt;&lt;span style=&quot;background-color: rgb(255, 255, 255);&quot;&gt;2. 宿主机访问容器内(端口映射)&lt;/span&gt;&lt;/div&gt;&lt;div style=&quot;&quot;&gt;&lt;span style=&quot;background-color: rgb(255, 255, 255);&quot;&gt;2. 宿主机访问容器内(通过网桥)&lt;/span&gt;&lt;/div&gt;&lt;span style=&quot;background-color: rgb(255, 255, 255);&quot;&gt;&lt;br&gt;&lt;/span&gt;&lt;div style=&quot;&quot;&gt;&lt;span style=&quot;background-color: rgb(255, 255, 255);&quot;&gt;3. 容器间访问(同一个网桥) &amp;nbsp;网卡进出都是docker0&lt;/span&gt;&lt;/div&gt;&lt;div style=&quot;&quot;&gt;&lt;span style=&quot;background-color: rgb(255, 255, 255);&quot;&gt;3. 容器间访问(不同网桥) &amp;nbsp;in docker0 &amp;nbsp;out ! docker0&lt;/span&gt;&lt;/div&gt;&lt;span style=&quot;background-color: rgb(255, 255, 255);&quot;&gt;&lt;br&gt;&lt;br&gt;&lt;/span&gt;&lt;div style=&quot;&quot;&gt;&lt;span style=&quot;background-color: rgb(255, 255, 255);&quot;&gt;1. 容器访问宿主机&lt;/span&gt;&lt;/div&gt;&lt;div style=&quot;&quot;&gt;&lt;span style=&quot;background-color: rgb(255, 255, 255);&quot;&gt;2. 容器访问外部网络&lt;/span&gt;&lt;/div&gt;&lt;/div&gt;" style="text;html=1;align=left;verticalAlign=middle;whiteSpace=wrap;rounded=0;" vertex="1" parent="1">
          <mxGeometry x="100" y="520" width="720" height="230" as="geometry" />
        </mxCell>
        <mxCell id="BUKgxNRoLi286E0FGoUt-26" value="" style="ellipse;shape=cloud;whiteSpace=wrap;html=1;" vertex="1" parent="1">
          <mxGeometry x="360" y="10" width="120" height="80" as="geometry" />
        </mxCell>
      </root>
    </mxGraphModel>
  </diagram>
</mxfile>
